<?xml version="1.0" encoding="iso-8859-1"?>
<!-- Uploaded to: SVG Repo, www.svgrepo.com, Generator: SVG Repo Mixer Tools -->
<svg height="800px" width="800px" version="1.1" id="Layer_1" xmlns="http://www.w3.org/2000/svg" xmlns:xlink="http://www.w3.org/1999/xlink" 
	 viewBox="0 0 505 505" xml:space="preserve">
<circle style="fill:#4CDBC4;" cx="252.5" cy="252.5" r="252.5"/>
<path style="fill:#FFFFFF;" d="M171.9,191.3c0-26.9-31.2-48.7-69.7-48.7s-69.7,21.8-69.7,48.7c0,24.1,24.9,44,57.7,48
	c12.9,24.3,38.1,39,62,37.3c-19.3-8.6-28.8-23.7-31.1-38.4C150.4,232.4,171.9,213.6,171.9,191.3z"/>
<path style="fill:#F9B54C;" d="M288.9,309.3c0.1-1.2,0.1-2.4,0.1-3.7c-0.2-5.5,2.4-10,6.3-12.9c-12.6-19.5-23.2-49.4-23.2-49.4
	h-40.6c0,0-15.9,46.3-31.9,61l51.3,16.3v0.8l1.2-0.4l1.2,0.4v-0.8L288.9,309.3z"/>
<path style="fill:#E6E9EE;" d="M302.5,302l-50.6,4.3l-46.8-4.6l-2.6,0.3c0,0-21.9,45.1-23.6,49.4c-1.7,4.3,17.2,85.3,17.2,90.9
	s72.9,37.3,72.9,37.3l47.2-77.6L302.5,302z"/>
<polygon style="fill:#F1543F;" points="260.2,334.1 243.6,334.1 232.5,306.3 271.2,306.3 "/>
<polygon style="fill:#FF7058;" points="260.2,334.1 243.6,334.1 232.5,405.4 251.9,431 271.2,405.4 "/>
<g>
	<path style="fill:#FFFFFF;" d="M289.7,282.7c0,0,28.5,24.2-13.9,50.9L252,306.7L289.7,282.7z"/>
	<path style="fill:#FFFFFF;" d="M214.1,282.7c0,0-28.5,24.2,13.9,50.9l23.8-26.9L214.1,282.7z"/>
</g>
<path style="fill:#324A5E;" d="M151.5,437.9c-2.6,11-5.7,25.6-8.4,42.2c-20.7-9.9-39.8-22.6-56.8-37.6
	c4.9-38.7,14.4-78.6,31.3-116.3c0,0,0,0.1,0.1,0.2l9.7,22.1c0,0.2,0.1,0.4,0.2,0.5l29.6,67.5C157.1,416.6,154.7,424.6,151.5,437.9z"
	/>
<path style="fill:#2B3B4E;" d="M270,504.4c-5.8,0.4-11.6,0.6-17.6,0.6c-5.9,0-11.8-0.2-17.6-0.6c-27.2-1.9-53.1-8-77.2-17.8
	c-1.4-17.5-3.6-33.7-6.2-48.6c-6.8-39.7-16.6-69.9-23.9-88.8c-0.1-0.2-0.2-0.4-0.2-0.5c-5.1-13.1-9-20.7-9.7-22.1
	c-0.1-0.2-0.1-0.2-0.1-0.2c24.9-1.7,45-8.6,60-16.1c19.7-9.9,30.6-20.7,31.7-21.8l0.1-0.1l-6.8,13.6l-5.7,38.5l30,90.6l24.1,32.5
	l1.5,2l3.1,4.2l4.3,5.8l4.3,5.9l0,0C267.4,485.2,269.2,493.3,270,504.4z"/>
<path style="fill:#324A5E;" d="M209.3,288.4c0,0-12.5,81.6,54.9,193.1c0,0-52.7-26.6-87.8-158l20.4-8.5l-20.4-4L209.3,288.4z"/>
<path style="fill:#2B3B4E;" d="M418.7,442.6c-17.1,14.9-36.2,27.6-56.8,37.5c-2.7-16.6-5.8-31.2-8.4-42.1
	c-3.2-13.3-5.6-21.4-5.6-21.4l29.8-68c0-0.1,0-0.2,0.1-0.3l9.5-21.8c0.1-0.2,0.1-0.2,0.1-0.2C404.3,364,413.9,403.9,418.7,442.6z"/>
<path style="fill:#324A5E;" d="M387.4,326.3c0,0,0,0.1-0.1,0.2c-0.7,1.4-4.5,8.8-9.5,21.8c-0.1,0.1-0.1,0.2-0.1,0.3
	c-7.3,18.9-17.3,49.3-24.2,89.4c-2.6,14.9-4.7,31.1-6.2,48.6c-24.1,9.8-50.1,15.9-77.2,17.8c-5.8,0.4-11.6,0.6-17.6,0.6
	c-5.9,0-11.8-0.2-17.6-0.6c0.9-11,2.7-19.1,5.8-22.8l0,0l8-10.9l0.6-0.7l3.1-4.2l1.5-2l24.1-32.5l29.7-89.8l0.3-0.8l-5.6-38.5
	l-6.8-13.6l0.1,0.1c1.1,1.1,11.9,12,31.6,21.7C342.3,317.7,362.5,324.7,387.4,326.3z"/>
<path style="fill:#2B3B4E;" d="M295.7,288.4c0,0,12.5,81.6-54.9,193.1c0,0,52.7-26.6,87.8-158l-20.4-8.5l20.4-4L295.7,288.4z"/>
<g>
	<path style="fill:#F9B54C;" d="M315.1,199.6c-0.8,9.8-4.3,17.7-7.9,17.7s-5.7-7.9-4.9-17.7c0.8-9.8,4.3-17.7,7.9-17.7
		S315.9,189.8,315.1,199.6z"/>
	<path style="fill:#F9B54C;" d="M189.9,199.6c0.8,9.8,4.3,17.7,7.9,17.7s5.7-7.9,4.9-17.7s-4.3-17.7-7.9-17.7
		S189.1,189.8,189.9,199.6z"/>
</g>
<path style="fill:#FFD05B;" d="M296.3,143.9c-3.3-7.2-10.7-11.8-18.9-11.8h-24.5h-24.5c-8.2,0-15.6,4.6-18.9,11.8
	c-7.9,17.3-9.5,47.4-9.6,67.8c0,13.5,5.2,26.6,14.7,36.7l7.7,8.1c7.1,7.5,16.2,13,26.3,15.9l4.3,1.2l4.3-1.2
	c10.2-2.9,19.3-8.4,26.3-15.9l7.7-8.1c9.5-10.1,14.7-23.1,14.7-36.7C305.8,191.3,304.2,161.2,296.3,143.9z"/>
<path style="fill:#11110F;" d="M312.1,126.9c-0.9-2.9-2.1-5.7-2.9-8.5c-0.5-1.9-0.9-4-1.9-5.7c-2.1-3.8-6.7-5.8-11-5.4
	s-8.2,2.9-11.1,6c0.7-4.1,0.8-8.5-1.2-12.1c-2.3-4.1-6.9-6.4-11.5-7.2c-4.6-0.9-9.3-0.6-13.9-1c-5.1-0.5-10.2-1.8-15.3-1.3
	c-4.2,0.4-8,2.8-12.2,3.7c-43.5,10-40.1,61.7-39.5,75.4c0.2,3.7,0.5,7.4,1.6,10.8c1.5,4.5,4.4,8.3,7.5,11.9c0.8-2.5,0.7-5.3,1.3-7.8
	c0.9-3.8,1.3-7.7,2.3-11.4c1-3.6,5.2-22.9,6.9-26.6c2.3-5.2,6.5-9.9,12-11.3c10.4-2.7,20.9,6.7,31.6,5c2-0.3,3.9-1.1,5.9-1.7
	c2.2-0.8,4.4-1.5,6.7-2.1c5-1.4,10.4-2.5,15.4-1.1c5.5,1.6,9.9,6,12.7,11.1c2.8,5.1,4.1,10.8,5.4,16.5c0.7,3.4,1.4,6.8,1.1,10.3
	c0,0.3-0.1,0.5-0.1,0.8c0.2,2.8-0.1,5.6,0.4,8.3c0.4,2.1,1.1,4.2,1.5,6.3c0.2,1,0.4,1.9,0.6,2.9c3.7-6.8,6.3-14.2,7.7-21.9
	c1.1-6.2,1.4-12.5,1.7-18.8C314.1,143.5,314.4,134.9,312.1,126.9z"/>
</svg>