<?xml version="1.0" encoding="iso-8859-1"?>
<!-- Uploaded to: SVG Repo, www.svgrepo.com, Generator: SVG Repo Mixer Tools -->
<svg version="1.1" id="Layer_1" xmlns="http://www.w3.org/2000/svg" xmlns:xlink="http://www.w3.org/1999/xlink" 
	 viewBox="0 0 508 508" xml:space="preserve">
<circle style="fill:#FFD05B;" cx="254" cy="254" r="254"/>
<g>
	<path style="fill:#FFFFFF;" d="M418.4,158c-14,13.6-34,22-56.8,22c-22.4,0-42.8-8.4-56.8-22l0,0c2.4-7.2,7.6-13.6,14.8-16.8
		l22-10.4c0.8-2.8,4-6.8,4-6.8c-1.6-2.4-2.8-5.2-4-8c-1.6,0-3.6-1.6-4.8-3.6c-1.2-2-0.8-4.4,0-6c-3.6-9.2-6-23.2,5.6-33.6l-5.2,1.2
		c0,0,6.8-12.8,20.4-8c0,0-1.2-2-5.6-3.2c0,0,6-2.8,9.6,1.6c0,0,2-1.6,0-3.2c0,0,10.8,0.4,20,9.2c12.4,12,9.6,27.2,5.2,37.2
		c0.4,1.2,0.4,3.2-0.4,4.8c-0.8,2-2.4,3.2-4,3.6c-0.8,1.2-3.6,6-4.8,8c0,0,3.6,4,4,6.8l22,10.4C410.8,144.4,416,150.4,418.4,158
		L418.4,158z"/>
	<path style="fill:#FFFFFF;" d="M418.4,291.6c-14,13.6-34,22-56.8,22c-22.4,0-42.8-8.4-56.8-22l0,0c2.4-7.2,7.6-13.6,14.8-16.8
		l22-10.4c0.8-2.8,4-6.8,4-6.8c-1.6-2.4-2.8-5.2-4-8c-1.6,0-3.6-1.6-4.8-3.6c-1.2-2-0.8-4.4,0-6c-3.6-9.2-6-23.2,5.6-33.6l-5.6,1.2
		c0,0,6.8-12.8,20.4-8c0,0-1.2-2-5.6-3.2c0,0,6-2.8,9.6,1.6c0,0,2-1.6,0-3.2c0,0,10.8,0.4,20,9.2c12.4,12,9.6,27.2,5.2,37.2
		c0.4,1.2,0.4,3.2-0.4,4.8c-0.8,2-2.4,3.2-4,3.6c-0.8,1.2-3.6,6-4.8,8c0,0,3.6,4,4,6.8l22,10.4C410.8,278,416,284,418.4,291.6
		L418.4,291.6z"/>
	<path style="fill:#FFFFFF;" d="M418.4,425.2c-14,13.6-34,22-56.8,22c-22.4,0-42.8-8.4-56.8-22l0,0c2.4-7.2,7.6-13.6,14.8-16.8
		l22-10.4c0.8-2.8,4-6.8,4-6.8c-1.6-2.4-2.8-5.2-4-8c-1.6,0-3.6-1.6-4.8-3.6c-1.2-2-0.8-4.4,0-6c-3.6-9.2-6-23.2,5.6-33.6l-5.6,1.2
		c0,0,6.8-12.8,20.4-8c0,0-1.2-2-5.6-3.2c0,0,6-2.8,9.6,1.6c0,0,2-1.6,0-3.2c0,0,10.8,0.4,20,9.2c12.4,12,9.6,27.2,5.2,37.2
		c0.4,1.2,0.4,3.2-0.4,4.8c-0.8,2-2.4,3.2-4,3.6c-0.8,1.2-3.6,6-4.8,8c0,0,3.6,4,4,6.8l22,10.4C410.8,411.6,416,417.6,418.4,425.2
		L418.4,425.2z"/>
</g>
<path style="fill:#324A5E;" d="M137.2,426c0,0,2.4,8-0.8,10.4c0,0-3.2,0.8-2.8,5.2c0,0,0,5.2-6.8,4.8c0,0-17.6,2-20.4-2
	c0,0-2-2.4-0.8-6l20.8-7.6L137.2,426z"/>
<g>
	<path style="fill:#2B3B4E;" d="M134.4,414c0,0,7.6,6.4,2,15.2c0,0-4,5.6-4,8.4c0,0,0.4,8.8-8.8,6.8c0,0-9.2-6.8-15.6-1.2
		c0,0-4.8-0.4-2.4-6.8c0,0,5.2-6.8,8.4-12.8c0,0,2-1.2,0.8-6L134.4,414z"/>
	<path style="fill:#2B3B4E;" d="M155.6,426c0,0-2.4,8,0.8,10.4c0,0,3.2,0.8,2.8,5.2c0,0,0,5.2,6.8,4.8c0,0,17.6,2,20.4-2
		c0,0,2-2.4,0.8-6l-20.8-7.6L155.6,426z"/>
</g>
<path style="fill:#324A5E;" d="M158,414c0,0-7.6,6.4-2,15.2c0,0,4,5.6,4,8.4c0,0-0.4,8.8,8.8,6.8c0,0,9.2-6.8,15.6-1.2
	c0,0,4.8-0.4,2.4-6.8c0,0-5.2-6.8-8.4-12.8c0,0-2-1.2-0.8-6L158,414z"/>
<polygon style="fill:#E6E9EE;" points="127.6,125.2 145.2,194.8 163.2,125.2 "/>
<polygon style="fill:#F1543F;" points="150.4,132.8 152.8,125.2 139.6,125.2 142,132.8 "/>
<polygon style="fill:#FF7058;" points="150.4,132.8 146.4,132.8 142,132.8 133.2,185.6 146.4,194.4 159.6,185.6 "/>
<path style="fill:#324A5E;" d="M112.8,222.8c-3.2,18-6.8,50.4-0.8,88c0,0,5.6,86.8,0.4,106c0,0,10.4,18,28.4,0
	c0,0,0.4-142.8,5.2-148.8v-45.2H112.8z"/>
<path style="fill:#2B3B4E;" d="M146,222.8v45.6c4.8,6,5.2,148.8,5.2,148.8c18,18,28.4,0,28.4,0c-5.2-19.2,0.4-106,0.4-106
	c6-37.6,2.4-70-0.8-88H146V222.8z"/>
<polygon style="fill:#CED5E0;" points="160.4,115.6 132,115.6 128,125.2 162.8,125.2 "/>
<path style="fill:#2B3B4E;" d="M129.2,121.6l-31.6,11.6c0,0,19.2,58.4,10.8,97.6c0,0-3.2,20-0.8,35.2c0,0,22,16,30.4,1.2
	c0,0,11.2-35.2,9.2-69.6l-10-26.4L129.2,121.6z"/>
<g>
	<path style="fill:#324A5E;" d="M132,115.6L116.8,132l5.6,2.4l-4.4,4c0,0,14.4,43.6,29.2,58.8C147.2,197.6,131.2,129.6,132,115.6z"
		/>
	<path style="fill:#324A5E;" d="M163.2,121.6l31.6,11.6c0,0-19.2,58.4-10.8,97.6c0,0,3.2,20,0.8,35.2c0,0-22,16-30.4,1.2
		c0,0-11.2-35.2-9.2-69.6l10-26.4L163.2,121.6z"/>
</g>
<g>
	<path style="fill:#2B3B4E;" d="M160.4,115.6l15.2,16.4l-5.6,2.4l4.4,4c0,0-14.4,43.6-29.2,58.8
		C145.2,197.6,161.2,129.6,160.4,115.6z"/>
	<circle style="fill:#2B3B4E;" cx="150.8" cy="200.8" r="3.2"/>
</g>
<polygon style="fill:#FF7058;" points="165.6,175.2 170.8,166.4 179.2,172.4 "/>
<rect x="163.226" y="172.418" transform="matrix(-0.9789 0.2042 -0.2042 -0.9789 376.4811 310.3871)" style="fill:#2B3B4E;" width="17.999" height="4.4"/>
<path style="fill:#F9B54C;" d="M196.8,260.8c0.4,3.6,0.4,6,0.4,6c0.8,0.8,3.2,4,3.2,4c4.4,3.6,2,6.4,2,6.4l0.4,2.8
	c1.2,1.2,0.4,3.6,0.4,3.6c-2.4,4.4-4,0.8-4,0.8c-2.4,3.2-4-0.8-4-0.8c-3.2,1.2-4-1.6-4-1.6s-5.6,0.8-4.4-11.6c0.4-2.8,0.4-6,0-9.2
	h10V260.8z"/>
<path style="fill:#FFD05B;" d="M192,273.2c0-0.4,0.4-2.4,0.4-2.4c-0.8,2.4,2,4,2,4c-0.4,0-0.4-1.6-0.4-1.6c0.4,2,4,3.6,4,3.6
	c0.4-1.2,1.6-2.4,1.6-2.4c-0.8,1.2-1.2,2.4-1.2,2.4c0.8,0,1.2,0.8,1.2,0.8c-0.8-0.8-1.2,0-1.2,0c1.6,0.4,1.2,2,1.2,2
	c0-1.6-1.2-1.6-1.2-1.6c0.8,0.8,0.4,1.6,0.4,1.6c0-1.2-1.6-1.6-1.6-1.6c0.8-1.2,0-0.8,0-0.8c-1.6-2-2,0.4-2.4,0.8h-0.4
	c0.8-2,0-2.4,0-2.4c-1.6-1.2-1.6,0.8-1.6,0.8c0,3.2-2.4,4.8-2.4,4.8h-0.8c1.6-0.8,2-2.4,2-2.4c1.2-3.2-0.4-3.6-0.4-3.6
	c-2.8-0.4-2,2-2,2c-1.2,0.4-2.4,0-2.4,0c0.4,0,1.2-0.8,1.2-0.8c1.2-0.8-0.4-2.8-0.4-2.8c0.8,0.8,4,0.8,4,0.8c1.6,0,0.4-1.6,0.4-1.6
	l-0.8,0.4c0-0.4-0.8-2.4-0.8-2.4C191.2,271.2,192,272.8,192,273.2z"/>
<g>
	<path style="fill:#F9B54C;" d="M202.8,278c0,0-0.4,0.4-1.6,2.4c0,0-0.4,0.4-0.4,0.8c-0.4,0.8-0.8,0.8-1.6,0.8
		c-0.8-0.4-2-0.4-2.8-0.4c0,0-0.8,0-1.6,0c-0.4,0-0.8-0.4-0.8-0.8c0.4-0.8,0.8-2,2.4-2c0,0,1.6-0.4,2.4,0c0,0-2.8-0.8-4,0.8
		c0,0-1.6,1.6-0.4,2.4c0,0,4,0,4.4,0.4c0,0,1.6,0.8,2.4-0.4c0,0,0.4-2,2-1.6c0,0-0.4-0.4-1.2-0.4C201.6,280,202,278.8,202.8,278z"/>
	<path style="fill:#F9B54C;" d="M199.2,282c-0.4,0.8,0.4,2.8,0.4,2.8c-0.4-0.4-0.4-0.8-0.4-0.8c0,0.4-0.4,0.4-0.4,0.8
		c0.4-1.2,0-2.8,0-2.8H199.2z"/>
	<path style="fill:#F9B54C;" d="M195.2,283.6C195.2,283.6,195.2,283.2,195.2,283.6c-0.4-0.4-0.4-0.4-0.4-0.4c0.4-0.8,0.4-2,0.4-2
		h0.4C196,282.4,195.2,283.6,195.2,283.6z"/>
</g>
<rect x="185.2" y="254.8" style="fill:#FFFFFF;" width="13.2" height="9.2"/>
<path style="fill:#F9B54C;" d="M96,260.8c-0.4,3.6-0.4,6-0.4,6c-0.8,0.8-3.2,4-3.2,4c-4.4,3.6-2,6.4-2,6.4L90,280
	c-1.2,1.2-0.4,3.6-0.4,3.6c2.4,4.4,4,0.8,4,0.8c2.4,3.2,4-0.8,4-0.8c3.2,1.2,4-1.6,4-1.6s5.6,0.8,4.4-11.6c-0.4-2.8-0.4-6,0-9.2H96
	V260.8z"/>
<path style="fill:#FFD05B;" d="M100.8,273.2c0-0.4-0.4-2.4-0.4-2.4c0.8,2.4-2,4-2,4c0.4,0,0.4-1.6,0.4-1.6c-0.4,2-4,3.6-4,3.6
	c-0.4-1.2-1.6-2.4-1.6-2.4c0.8,1.2,1.2,2.4,1.2,2.4c-0.8,0-1.2,0.8-1.2,0.8c0.8-0.8,1.2,0,1.2,0c-1.6,0.4-1.2,2-1.2,2
	c0-1.6,1.2-1.6,1.2-1.6c-0.8,0.8-0.4,1.6-0.4,1.6c0-1.2,1.6-1.6,1.6-1.6c-0.8-1.2,0-0.8,0-0.8c1.6-2,2,0.4,2.4,0.8h0.4
	c-0.8-2,0-2.4,0-2.4c1.6-1.2,1.6,0.8,1.6,0.8c0,3.2,2.4,4.8,2.4,4.8h0.8c-1.6-0.8-2-2.4-2-2.4c-1.2-3.2,0.4-3.6,0.4-3.6
	c2.8-0.4,2,2,2,2c1.2,0.4,2.4,0,2.4,0c-0.4,0-1.2-0.8-1.2-0.8c-1.2-0.8,0.4-2.8,0.4-2.8c-0.8,0.8-4,0.8-4,0.8
	c-1.6,0-0.4-1.6-0.4-1.6l0.8,0.4c0-0.4,0.8-2.4,0.8-2.4C101.6,271.2,100.8,272.8,100.8,273.2z"/>
<g>
	<path style="fill:#F9B54C;" d="M90.4,278c0,0,0.4,0.4,1.6,2.4c0,0,0.4,0.4,0.4,0.8c0.4,0.8,0.8,0.8,1.6,0.8c0.8-0.4,2-0.4,2.8-0.4
		c0,0,0.8,0,1.6,0c0.4,0,0.8-0.4,0.8-0.8c-0.4-0.8-0.8-2-2.4-2c0,0-1.6-0.4-2.4,0c0,0,2.8-0.8,4,0.8c0,0,1.6,1.6,0.4,2.4
		c0,0-4,0-4.4,0.4c0,0-1.6,0.8-2.4-0.4c0,0-0.4-2-2-1.6c0,0,0.4-0.4,1.2-0.4C91.2,280,90.8,278.8,90.4,278z"/>
	<path style="fill:#F9B54C;" d="M93.6,282c0.4,0.8-0.4,2.8-0.4,2.8c0.4-0.4,0.4-0.8,0.4-0.8c0,0.4,0.4,0.4,0.4,0.8
		c-0.4-1.2,0-2.8,0-2.8H93.6z"/>
	<path style="fill:#F9B54C;" d="M97.6,283.6C97.6,283.6,97.6,283.2,97.6,283.6c0.4-0.4,0.4-0.4,0.4-0.4c-0.4-0.8-0.4-2-0.4-2h-0.4
		C96.8,282.4,97.6,283.6,97.6,283.6z"/>
</g>
<rect x="94.4" y="254.8" style="fill:#FFFFFF;" width="13.2" height="9.2"/>
<path style="fill:#2B3B4E;" d="M201.2,260h-18.4c0,0-0.4-47.2,2-56.4c0,0,0.8-9.2-1.6-16.8c3.2-28.4,11.6-53.6,11.6-54
	C194.8,133.2,204,156.4,201.2,260z"/>
<path style="fill:#324A5E;" d="M91.2,260h18.4c0,0,0.4-47.2-2-56.4c0,0-0.8-9.2,1.6-16.8c-3.2-28.4-11.6-53.6-11.6-54
	C97.6,133.2,88.4,156.4,91.2,260z"/>
<ellipse style="fill:#F9B54C;" cx="146.4" cy="112" rx="12" ry="13.2"/>
<g>
	<path style="fill:#FFFFFF;" d="M158,109.6c0,0,2.4,11.6-11.6,15.6c0,0,8,1.6,11.6,11.6C157.6,136.8,167.2,122,158,109.6z"/>
	<path style="fill:#FFFFFF;" d="M134.4,109.6c0,0-2.4,11.6,11.6,15.6c0,0-8,1.6-11.6,11.6C134.8,136.8,125.6,122,134.4,109.6z"/>
</g>
<path style="fill:#FFD05B;" d="M163.2,100c-1.6,4.8-2.4,8-2.4,8.4l0,0c-4,5.2-8.8,8.8-14.4,8.8c-5.2,0-9.6-3.2-13.2-8
	c-8-10-2.4-28-2.4-28c4,4.4,16.8,4.8,16.8,4.8c-5.2-0.8-6.4-4.8-6.4-5.6c1.2,2.8,13.6,4.4,13.6,4.4C167.6,87.2,163.2,100,163.2,100z
	"/>
<path style="fill:#324A5E;" d="M139.2,62.4c0,0,17.6-7.2,26.8,8.8c9.6,17.2-2.4,35.6-4.8,37.2c0,0,0.8-2.8,2.4-8.8
	c0,0,4.4-12.8-8.8-14.8c0,0-12.4-1.6-13.6-4.4c0,0,0.8,4.4,6.4,5.6c0,0-12.8-0.4-16.8-4.8c0,0-5.6,18,2.4,28c0,0-14-11.2-12.4-28.4
	C121.2,81.2,120.4,57.6,139.2,62.4z"/>
<path style="fill:#FF7058;" d="M271.2,104.4H300c2.8,0,5.6-2.4,5.6-5.6s-2.4-5.6-5.6-5.6h-34c-2.8,0-5.6,2.4-5.6,5.6v146.4h-28.8
	c-2.8,0-5.6,2.4-5.6,5.6c0,2.8,2.4,5.6,5.6,5.6h28.8v146.4c0,2.8,2.4,5.6,5.6,5.6h30c2.8,0,5.6-2.4,5.6-5.6c0-2.8-2.4-5.6-5.6-5.6
	h-24.8V104.4z"/>
</svg>